# xmcd CD database file
#
# Track frame offsets:
#	150
#	23107
#	47714
#	68849
#	89780
#	108093
#	127915
#	155452
#	174176
#	202776
#	222789
#
# Disc length: 3069 seconds
#
# Revision: 0
# Processed by: cddbd v1.5.1PL0 Copyright (c) Steve Scherf et al.
# Submitted via: CDex 1.51
#
DISCID=880bfb0b
DTITLE=Alan Parsons - On Air
DYEAR=1996
DGENRE=New Age
TTITLE0=Blue Blue Sky
TTITLE1=Too Close To The Sun
TTITLE2=Blown by the Wind
TTITLE3=Cloudbreak
TTITLE4=I Can´t Look Down
TTITLE5=Brother up in Heaven
TTITLE6=Fall Free
TTITLE7=Apollo
TTITLE8=So Far Avay
TTITLE9=One Day To Fly
TTITLE10=Blue Blue Sky
EXTD=YEAR: 1996
EXTT0=
EXTT1=
EXTT2=
EXTT3=
EXTT4=
EXTT5=
EXTT6=
EXTT7=
EXTT8=
EXTT9=
EXTT10=
PLAYORDER=
